<?xml version="1.0" encoding="utf-8"?>
<!-- Generator: Adobe Illustrator 25.2.3, SVG Export Plug-In . SVG Version: 6.00 Build 0)  -->
<svg version="1.1" id="レイヤー_1" xmlns="http://www.w3.org/2000/svg" xmlns:xlink="http://www.w3.org/1999/xlink" x="0px"
	 y="0px" width="300px" height="300px" viewBox="0 0 300 300" style="enable-background:new 0 0 300 300;" xml:space="preserve">
<style type="text/css">
	.st0{fill:#333333;}
</style>
<g>
	<g>
		
			<ellipse transform="matrix(0.7833 -0.6216 0.6216 0.7833 -99.1793 98.6256)" class="st0" cx="91.88" cy="191.57" rx="5.36" ry="3.54"/>
		
			<ellipse transform="matrix(0.6952 -0.7189 0.7189 0.6952 -112.5969 130.7641)" class="st0" cx="97.88" cy="198.14" rx="5.36" ry="3.54"/>
		
			<ellipse transform="matrix(0.8071 -0.5904 0.5904 0.8071 -97.4747 84.944)" class="st0" cx="81.26" cy="191.64" rx="5.36" ry="3.54"/>
		<ellipse transform="matrix(0.66 -0.7513 0.7513 0.66 -123.9903 144.0303)" class="st0" cx="97.13" cy="209" rx="5.36" ry="3.54"/>
		<path class="st0" d="M88.5,197.16l-4.11,0.21c-0.32,0.04-1.88,0.02-2.19-0.03L77.46,197c-0.3-0.05-0.6-0.07-0.91-0.02
			c-2.29,0.36-3.44,3.21-1.8,5.01c4.78,3.8,8.2,7.54,11.56,12.64c1.55,1.7,3.61,0.27,4.38-1.71c0.16-0.42,0.21-0.89,0.16-1.33
			l-0.32-2.96c0.09-2.72,0-4.16,0.78-6.78l0.29-0.98c0.4-1.33-0.14-2.77-1.35-3.42c-0.05-0.03-0.1-0.05-0.15-0.08
			C89.61,197.14,89.05,197.08,88.5,197.16z"/>
	</g>
	<g>
		
			<ellipse transform="matrix(0.4189 -0.908 0.908 0.4189 -157.5856 231.9827)" class="st0" cx="102.46" cy="239.12" rx="5.36" ry="3.54"/>
		
			<ellipse transform="matrix(0.5342 -0.8453 0.8453 0.5342 -154.4249 189.401)" class="st0" cx="94.66" cy="234.84" rx="5.36" ry="3.54"/>
		
			<ellipse transform="matrix(0.383 -0.9238 0.9238 0.383 -165.7061 250.8246)" class="st0" cx="104.9" cy="249.45" rx="5.36" ry="3.54"/>
		
			<ellipse transform="matrix(0.574 -0.8188 0.8188 0.574 -159.086 170.4552)" class="st0" cx="84.29" cy="238.13" rx="5.36" ry="3.54"/>
		<path class="st0" d="M97.83,243.72l0.77,4.05c0.03,0.32,0.42,1.83,0.55,2.12l1.45,4.53c0.12,0.28,0.21,0.57,0.23,0.88
			c0.19,2.31-2.3,4.11-4.44,2.93c-4.82-3.75-9.26-6.19-15.02-8.25c-2.02-1.11-1.12-3.45,0.63-4.66c0.37-0.26,0.81-0.41,1.26-0.47
			l2.95-0.39c2.62-0.73,4.04-0.99,6.41-2.36l0.88-0.51c1.2-0.7,2.73-0.52,3.64,0.5c0.04,0.04,0.07,0.08,0.11,0.13
			C97.59,242.64,97.78,243.17,97.83,243.72z"/>
	</g>
	<g>
		
			<ellipse transform="matrix(0.7287 -0.6849 0.6849 0.7287 -62.1862 129.0667)" class="st0" cx="131.8" cy="143.02" rx="5.36" ry="3.54"/>
		
			<ellipse transform="matrix(0.6327 -0.7744 0.7744 0.6327 -64.6231 161.8674)" class="st0" cx="138.33" cy="149.06" rx="5.36" ry="3.54"/>
		
			<ellipse transform="matrix(0.755 -0.6557 0.6557 0.755 -64.708 114.7647)" class="st0" cx="121.22" cy="143.97" rx="5.36" ry="3.54"/>
		
			<ellipse transform="matrix(0.595 -0.8037 0.8037 0.595 -72.4629 176.09)" class="st0" cx="138.49" cy="159.94" rx="5.36" ry="3.54"/>
		<path class="st0" d="M128.9,148.86l-4.08,0.55c-0.31,0.07-1.87,0.18-2.18,0.15l-4.75,0.06c-0.3-0.03-0.61-0.02-0.9,0.06
			c-2.25,0.55-3.16,3.49-1.38,5.14c5.08,3.39,8.8,6.83,12.58,11.63c1.69,1.56,3.62-0.03,4.22-2.07c0.13-0.44,0.13-0.9,0.04-1.34
			l-0.57-2.92c-0.14-2.72-0.35-4.15,0.21-6.82l0.21-1c0.28-1.36-0.37-2.75-1.63-3.29c-0.05-0.02-0.1-0.04-0.16-0.06
			C130,148.75,129.43,148.74,128.9,148.86z"/>
	</g>
	<g>
		
			<ellipse transform="matrix(0.4846 -0.8747 0.8747 0.4846 -95.0183 222.152)" class="st0" cx="141.01" cy="191.71" rx="5.36" ry="3.54"/>
		
			<ellipse transform="matrix(0.595 -0.8037 0.8037 0.595 -96.1025 183.0197)" class="st0" cx="133.54" cy="186.86" rx="5.36" ry="3.54"/>
		
			<ellipse transform="matrix(0.4499 -0.8931 0.8931 0.4499 -102.0863 238.6544)" class="st0" cx="142.68" cy="202.19" rx="5.36" ry="3.54"/>
		
			<ellipse transform="matrix(0.6327 -0.7744 0.7744 0.6327 -101.4991 164.774)" class="st0" cx="122.95" cy="189.39" rx="5.36" ry="3.54"/>
		<path class="st0" d="M136.05,195.95l0.47,4.09c0.01,0.32,0.29,1.85,0.39,2.15l1.11,4.62c0.1,0.29,0.17,0.59,0.17,0.89
			c0.02,2.32-2.6,3.92-4.64,2.6c-4.54-4.09-8.78-6.85-14.37-9.33c-1.93-1.25-0.86-3.52,0.97-4.6c0.39-0.23,0.84-0.35,1.29-0.37
			l2.97-0.17c2.67-0.53,4.1-0.69,6.56-1.88l0.92-0.45c1.25-0.61,2.76-0.32,3.59,0.77c0.03,0.04,0.07,0.09,0.1,0.14
			C135.89,194.86,136.04,195.4,136.05,195.95z"/>
	</g>
	<g>
		
			<ellipse transform="matrix(0.6689 -0.7433 0.7433 0.6689 -10.2702 156.6861)" class="st0" cx="170.77" cy="89.87" rx="5.36" ry="3.54"/>
		
			<ellipse transform="matrix(0.5658 -0.8245 0.8245 0.5658 -1.432 187.9785)" class="st0" cx="177.78" cy="95.35" rx="5.36" ry="3.54"/>
		
			<ellipse transform="matrix(0.6976 -0.7165 0.7165 0.6976 -17.231 142.5918)" class="st0" cx="160.31" cy="91.71" rx="5.36" ry="3.54"/>
		
			<ellipse transform="matrix(0.5258 -0.8506 0.8506 0.5258 -5.5087 202.4843)" class="st0" cx="178.85" cy="106.18" rx="5.36" ry="3.54"/>
		<path class="st0" d="M168.37,95.94l-4.02,0.89c-0.3,0.1-1.85,0.33-2.16,0.33l-4.73,0.46c-0.3,0-0.61,0.03-0.9,0.13
			c-2.2,0.74-2.86,3.74-0.94,5.24c5.35,2.95,9.34,6.07,13.51,10.54c1.81,1.42,3.61-0.33,4.04-2.41c0.09-0.45,0.05-0.91-0.07-1.34
			l-0.81-2.86c-0.36-2.7-0.69-4.1-0.36-6.82l0.12-1.02c0.17-1.38-0.6-2.71-1.9-3.15c-0.05-0.02-0.11-0.03-0.16-0.05
			C169.45,95.74,168.89,95.78,168.37,95.94z"/>
	</g>
	<g>
		
			<ellipse transform="matrix(0.5173 -0.8558 0.8558 0.5173 -32.2421 223.9546)" class="st0" cx="182.42" cy="140.56" rx="5.36" ry="3.54"/>
		
			<ellipse transform="matrix(0.625 -0.7807 0.7807 0.625 -40.0441 187.5241)" class="st0" cx="175.15" cy="135.44" rx="5.36" ry="3.54"/>
		
			<ellipse transform="matrix(0.4834 -0.8754 0.8754 0.4834 -37.3744 238.8779)" class="st0" cx="183.7" cy="151.1" rx="5.36" ry="3.54"/>
		
			<ellipse transform="matrix(0.6616 -0.7499 0.7499 0.6616 -47.491 169.8899)" class="st0" cx="164.47" cy="137.56" rx="5.36" ry="3.54"/>
		<path class="st0" d="M177.31,144.62l0.31,4.11c0,0.32,0.22,1.86,0.31,2.17l0.93,4.66c0.09,0.29,0.14,0.59,0.14,0.9
			c-0.07,2.32-2.75,3.82-4.74,2.42c-4.38-4.26-8.52-7.18-14.01-9.87c-1.88-1.33-0.73-3.55,1.14-4.56c0.4-0.22,0.85-0.32,1.3-0.32
			l2.98-0.06c2.69-0.43,4.13-0.53,6.63-1.63l0.94-0.41c1.27-0.56,2.77-0.21,3.56,0.91c0.03,0.05,0.06,0.09,0.09,0.14
			C177.19,143.52,177.31,144.07,177.31,144.62z"/>
	</g>
	<g>
		
			<ellipse transform="matrix(0.6689 -0.7433 0.7433 0.6689 34.1484 168.7727)" class="st0" cx="206.54" cy="46.05" rx="5.36" ry="3.54"/>
		
			<ellipse transform="matrix(0.5658 -0.8245 0.8245 0.5658 50.2341 198.452)" class="st0" cx="213.56" cy="51.53" rx="5.36" ry="3.54"/>
		
			<ellipse transform="matrix(0.6976 -0.7165 0.7165 0.6976 24.9872 154.9745)" class="st0" cx="196.08" cy="47.89" rx="5.36" ry="3.54"/>
		
			<ellipse transform="matrix(0.5258 -0.8506 0.8506 0.5258 48.7342 212.1364)" class="st0" cx="214.63" cy="62.36" rx="5.36" ry="3.54"/>
		<path class="st0" d="M204.15,52.12l-4.02,0.89c-0.3,0.1-1.85,0.33-2.16,0.33l-4.73,0.46c-0.3,0-0.61,0.03-0.9,0.13
			c-2.2,0.74-2.86,3.74-0.94,5.24c5.35,2.95,9.34,6.07,13.51,10.54c1.81,1.42,3.61-0.33,4.04-2.41c0.09-0.45,0.05-0.91-0.07-1.34
			l-0.81-2.86c-0.36-2.7-0.69-4.1-0.36-6.82l0.12-1.02c0.17-1.38-0.6-2.71-1.9-3.15c-0.05-0.02-0.11-0.03-0.16-0.05
			C205.23,51.92,204.67,51.95,204.15,52.12z"/>
	</g>
	<g>
		
			<ellipse transform="matrix(0.5173 -0.8558 0.8558 0.5173 25.0666 234.8149)" class="st0" cx="220.7" cy="95.19" rx="5.36" ry="3.54"/>
		
			<ellipse transform="matrix(0.625 -0.7807 0.7807 0.625 9.7361 200.3918)" class="st0" cx="213.43" cy="90.06" rx="5.36" ry="3.54"/>
		
			<ellipse transform="matrix(0.4834 -0.8754 0.8754 0.4834 22.1262 248.9483)" class="st0" cx="221.98" cy="105.73" rx="5.36" ry="3.54"/>
		
			<ellipse transform="matrix(0.6616 -0.7499 0.7499 0.6616 -0.5075 183.2405)" class="st0" cx="202.75" cy="92.18" rx="5.36" ry="3.54"/>
		<path class="st0" d="M215.59,99.24l0.31,4.11c0,0.32,0.22,1.86,0.31,2.17l0.93,4.66c0.09,0.29,0.14,0.59,0.14,0.9
			c-0.07,2.32-2.75,3.82-4.74,2.42c-4.38-4.26-8.52-7.18-14.01-9.87c-1.88-1.33-0.73-3.55,1.14-4.56c0.4-0.22,0.85-0.32,1.3-0.32
			l2.98-0.06c2.69-0.43,4.13-0.53,6.63-1.63l0.94-0.41c1.27-0.56,2.77-0.21,3.56,0.91c0.03,0.05,0.06,0.09,0.09,0.14
			C215.47,98.14,215.6,98.69,215.59,99.24z"/>
	</g>
</g>
</svg>
